@startuml
skinparam componentStyle uml2
skinparam component {
  backgroundColor<<relationship>> White
}

component "PrdCtgMgmt: tmforum:TMFC001" <<node>> as node_PrdCtgMgmt
interface "TMF620_capability" as node_PrdCtgMgmt_TMF620_capability
node_PrdCtgMgmt_TMF620_capability -- node_PrdCtgMgmt

component "PrdOrdCptVd: TMFC002_c648_c663_r679" <<node>> as node_PrdOrdCptVd
interface "TMF622_capability" as node_PrdOrdCptVd_TMF622_capability
node_PrdOrdCptVd_TMF622_capability -- node_PrdOrdCptVd
interface "TMF648_capability" as node_PrdOrdCptVd_TMF648_capability
node_PrdOrdCptVd_TMF648_capability -- node_PrdOrdCptVd
interface "TMF663_capability" as node_PrdOrdCptVd_TMF663_capability
node_PrdOrdCptVd_TMF663_capability -- node_PrdOrdCptVd
component ": oda_component_depends_on_TMF_API" <<relationship>> as node_PrdOrdCptVd_TMF620_requirement_relationship0
interface " " as node_PrdOrdCptVd_TMF620_requirement_relationship0_source
node_PrdOrdCptVd_TMF620_requirement_relationship0_source -- node_PrdOrdCptVd_TMF620_requirement_relationship0
node_PrdOrdCptVd --( node_PrdOrdCptVd_TMF620_requirement_relationship0_source : TMF620_requirement
component ": oda_component_depends_on_TMF_API" <<relationship>> as node_PrdOrdCptVd_TMF637_requirement_relationship1
interface " " as node_PrdOrdCptVd_TMF637_requirement_relationship1_source
node_PrdOrdCptVd_TMF637_requirement_relationship1_source -- node_PrdOrdCptVd_TMF637_requirement_relationship1
node_PrdOrdCptVd --( node_PrdOrdCptVd_TMF637_requirement_relationship1_source : TMF637_requirement
component ": tmforum:oda_component_depends_on_TMF_API" <<relationship>> as node_PrdOrdCptVd_TMF679_requirement_relationship2
interface " " as node_PrdOrdCptVd_TMF679_requirement_relationship2_source
node_PrdOrdCptVd_TMF679_requirement_relationship2_source -- node_PrdOrdCptVd_TMF679_requirement_relationship2
node_PrdOrdCptVd --( node_PrdOrdCptVd_TMF679_requirement_relationship2_source : TMF679_requirement

component "Poom: tmforum:TMFC003" <<node>> as node_Poom
component ": oda_component_depends_on_TMF_API" <<relationship>> as node_Poom_TMF620_requirement_relationship0
interface " " as node_Poom_TMF620_requirement_relationship0_source
node_Poom_TMF620_requirement_relationship0_source -- node_Poom_TMF620_requirement_relationship0
node_Poom --( node_Poom_TMF620_requirement_relationship0_source : TMF620_requirement
component ": oda_component_depends_on_TMF_API" <<relationship>> as node_Poom_TMF622_requirement_relationship1
interface " " as node_Poom_TMF622_requirement_relationship1_source
node_Poom_TMF622_requirement_relationship1_source -- node_Poom_TMF622_requirement_relationship1
node_Poom --( node_Poom_TMF622_requirement_relationship1_source : TMF622_requirement
component ": oda_component_depends_on_TMF_API" <<relationship>> as node_Poom_TMF637_requirement_relationship2
interface " " as node_Poom_TMF637_requirement_relationship2_source
node_Poom_TMF637_requirement_relationship2_source -- node_Poom_TMF637_requirement_relationship2
node_Poom --( node_Poom_TMF637_requirement_relationship2_source : TMF637_requirement

component "PI: tmforum:TMFC005" <<node>> as node_PI
interface "TMF637_capability" as node_PI_TMF637_capability
node_PI_TMF637_capability -- node_PI

component "Cpq: TMFC027_r622" <<node>> as node_Cpq
interface "TMF679_capability" as node_Cpq_TMF679_capability
node_Cpq_TMF679_capability -- node_Cpq
component ": oda_component_depends_on_TMF_API" <<relationship>> as node_Cpq_TMF620_requirement_relationship0
interface " " as node_Cpq_TMF620_requirement_relationship0_source
node_Cpq_TMF620_requirement_relationship0_source -- node_Cpq_TMF620_requirement_relationship0
node_Cpq --( node_Cpq_TMF620_requirement_relationship0_source : TMF620_requirement
component ": oda_component_depends_on_TMF_API" <<relationship>> as node_Cpq_TMF637_requirement_relationship1
interface " " as node_Cpq_TMF637_requirement_relationship1_source
node_Cpq_TMF637_requirement_relationship1_source -- node_Cpq_TMF637_requirement_relationship1
node_Cpq --( node_Cpq_TMF637_requirement_relationship1_source : TMF637_requirement
component ": oda_component_depends_on_TMF_API" <<relationship>> as node_Cpq_TMF645_requirement_relationship2
interface " " as node_Cpq_TMF645_requirement_relationship2_source
node_Cpq_TMF645_requirement_relationship2_source -- node_Cpq_TMF645_requirement_relationship2
node_Cpq --( node_Cpq_TMF645_requirement_relationship2_source : TMF645_requirement
component ": oda_component_depends_on_TMF_API" <<relationship>> as node_Cpq_TMF648_requirement_relationship3
interface " " as node_Cpq_TMF648_requirement_relationship3_source
node_Cpq_TMF648_requirement_relationship3_source -- node_Cpq_TMF648_requirement_relationship3
node_Cpq --( node_Cpq_TMF648_requirement_relationship3_source : TMF648_requirement
component ": oda_component_depends_on_TMF_API" <<relationship>> as node_Cpq_TMF663_requirement_relationship4
interface " " as node_Cpq_TMF663_requirement_relationship4_source
node_Cpq_TMF663_requirement_relationship4_source -- node_Cpq_TMF663_requirement_relationship4
node_Cpq --( node_Cpq_TMF663_requirement_relationship4_source : TMF663_requirement
component ": tmforum:oda_component_depends_on_TMF_API" <<relationship>> as node_Cpq_TMF622_requirement_relationship5
interface " " as node_Cpq_TMF622_requirement_relationship5_source
node_Cpq_TMF622_requirement_relationship5_source -- node_Cpq_TMF622_requirement_relationship5
node_Cpq --( node_Cpq_TMF622_requirement_relationship5_source : TMF622_requirement

component "Dummy: tmforum:TMFC999" <<node>> as node_Dummy
interface "TMF645_capability" as node_Dummy_TMF645_capability
node_Dummy_TMF645_capability -- node_Dummy

node_PrdOrdCptVd_TMF620_requirement_relationship0 --( node_PrdCtgMgmt_TMF620_capability
node_PrdOrdCptVd_TMF637_requirement_relationship1 --( node_PI_TMF637_capability
node_PrdOrdCptVd_TMF679_requirement_relationship2 --( node_Cpq_TMF679_capability
node_Poom_TMF620_requirement_relationship0 --( node_PrdCtgMgmt_TMF620_capability
node_Poom_TMF622_requirement_relationship1 --( node_PrdOrdCptVd_TMF622_capability
node_Poom_TMF637_requirement_relationship2 --( node_PI_TMF637_capability
node_Cpq_TMF620_requirement_relationship0 --( node_PrdCtgMgmt_TMF620_capability
node_Cpq_TMF637_requirement_relationship1 --( node_PI_TMF637_capability
node_Cpq_TMF645_requirement_relationship2 --( node_Dummy_TMF645_capability
node_Cpq_TMF648_requirement_relationship3 --( node_PrdOrdCptVd_TMF648_capability
node_Cpq_TMF663_requirement_relationship4 --( node_PrdOrdCptVd_TMF663_capability
node_Cpq_TMF622_requirement_relationship5 --( node_PrdOrdCptVd_TMF622_capability
@enduml
